<?xml version="1.0" encoding="utf-8"?>
<!-- Generator: Adobe Illustrator 22.1.0, SVG Export Plug-In . SVG Version: 6.00 Build 0)  -->
<svg version="1.1" id="Layer_1" xmlns="http://www.w3.org/2000/svg" xmlns:xlink="http://www.w3.org/1999/xlink" x="0px" y="0px"
	 viewBox="0 0 157.8 28.5" style="enable-background:new 0 0 157.8 28.5;" xml:space="preserve">
<g>
	<g>
		<path d="M8.6,16.8v-5.6L6.9,12c0,0-0.4,1-0.4,2.4c0.1,1.1,0.7,2.4,1.1,2.9L8.6,16.8 M13.6,5.3c0.4,0,1.1,0.2,1.6,0.7
			c0.5,0.5,0.6,1.3,0.5,2c-0.2,0.6-0.3,0.9-1,1.4c-0.6,0.4-1.4,0.4-1.4,0.4v2.7l1.3,1.1l-1.3,1.1v3.7c0,0,1.3-0.8,2.1-2.4
			c0,0,0-0.1,0.1-0.3c0.1,0.5,0,1.4-0.5,2.5c-0.4,0.9-1.1,1.7-2,2.2c-1.6,0.9-2.7,0.9-4,0.7c-1.5-0.3-2.8-1.1-3.7-2.6
			c-0.6-1-0.9-2.2-0.9-3.5c0.1-2.5,1.9-4.6,4-5.4c0.3-0.1,0.4-0.2,0.7-0.2C9,9.4,8.8,9.6,8.5,9.7c-0.7,0.4-1.3,1.3-1.5,2l4.1-1.8
			v5.8l-3.3,1.7c0.4,0.5,1.5,1.3,2.5,1.4C12,19,13,18.3,13,18.3v-3.8l-1.3-1.1l1.3-1.1V9.7c-0.7-0.1-1.6-0.3-2.1-0.4
			c-0.7-0.2-3.2-0.9-3.6-0.9c-0.4-0.1-0.9,0-1.2,0.2C5.9,8.8,5.7,9.3,5.8,9.7c0.1,0.2,0.2,0.4,0.4,0.5c0,0-0.1,0-0.4-0.2
			C5.3,9.8,5,9.2,4.9,8.5C4.9,7.7,5.2,6.9,6,6.3c0.6-0.4,1.4-0.7,2.2-0.6C9.4,5.9,11,6.6,12.5,7c0.6,0.1,1,0.2,1.4,0
			C14,6.8,14.4,6.4,14.1,6c-0.3-0.5-0.9-0.5-1.4-0.6C13.1,5.3,13.2,5.3,13.6,5.3z"/>
		<path d="M29.7,15.4l-1.9,1.4v-4.6L29.7,15.4 M29.6,11c0,0-1.3,0.8-2.1,1.3c-0.9,0.5-2,1.1-2,1.1v5.3l-0.8,0.6l0.1,0.1l0.7-0.6
			l2.3,2.1l4.1-3.2l-0.1-0.1l-2.2,1.8l-1.8-1.7v-0.6l3.7-2.7L29.6,11z"/>
		<path d="M19,22.9c0.5,0.1,1.5,0.2,2.6-0.4c1.3-0.6,1.9-2,1.9-3.3l0.1-1.9V13l0.8-0.6l-0.1-0.1l-0.8,0.6l-1.8-2l-2.3,2V6.1
			l-2.9,2.3c0.1,0.1,0.5,0.2,0.6,0.7v9.6l-1.2,0.9l0.1,0.1l0.6-0.4l1.7,1.5l2.6-2.1l-0.1-0.1L19.9,19l-0.7-0.6l0-5.3l0.8-0.6
			l1.1,1.4c0,0,0,3.4,0,4.6c0,1.2,0,2.7-0.7,3.5C19.9,22.6,19.6,22.7,19,22.9"/>
		<path d="M37.1,22.4c-1-0.1-1.5-0.8-1.5-1.3c0-0.3,0.3-0.9,0.9-1c0.6-0.1,1.3,0.2,1.8,0.9l2.4-2.7l-0.1-0.1l-0.6,0.7
			c-0.7-0.8-1.6-1.2-2.5-1.4V9.4l6.3,11.4c0,0,0.1,0.1,0.3,0.1c0.2,0,0.2-0.2,0.2-0.2l0-11.5c0.5,0,1.3-0.3,1.7-0.7
			c1.2-1.2,0.7-2.6,0.6-2.7c-0.1,0.6-0.5,1.2-1.3,1.2c-1,0-1.6-0.7-1.6-0.7l-2.4,2.7l0.1,0.1l0.7-0.8c0.8,0.8,1.5,0.9,2.1,0.9l0,6.7
			l-4.7-8.4c-0.4-0.7-1.1-1.3-2.1-1.3c-1.2,0-2,1-2.1,1.9c-0.1,1,0,1.2,0,1.2s0.2-1.1,0.9-1.1c0.6,0,0.9,0.6,1.2,1v2.4
			c-0.6,0-2.3,0.1-2.4,1.8c0,0.6,0.4,1.3,0.7,1.5c0.4,0.3,0.8,0.3,0.8,0.3S36,15,36.2,14.5c0.1-0.5,1.2-0.6,1.2-0.4v3.5
			c-0.5,0-2.1,0-2.8,1.4c-0.4,0.8-0.4,1.8,0.1,2.4C35,21.9,35.8,22.6,37.1,22.4"/>
		<path d="M50.4,15.4l-1.9,1.4v-4.6L50.4,15.4 M50.4,11c0,0-1.3,0.8-2.1,1.3c-0.9,0.5-2,1.1-2,1.1v5.3l-0.8,0.6l0.1,0.1l0.7-0.6
			l2.3,2.1l4.1-3.2l-0.1-0.1l-2.2,1.8l-1.8-1.7v-0.6l3.7-2.7L50.4,11z"/>
		<path d="M56.1,20.9l-2-1.7l-0.9,0.6l-0.1-0.1l0.9-0.6v-4.6c0-1.9-1.7-1.4-1.6-3.4c0-0.9,0.9-1.6,1.3-1.8c0.5-0.2,1-0.2,1-0.2
			s-0.8,0.5-0.6,1.2c0.3,1.1,2.2,1.2,2.3,2.7v5.2l1.4,1.1l0.4-0.3v-5.7l-0.8-0.8l2-1.8l1.8,1.6l-0.7,0.7v5l1.7,1.4l0.3-0.2v-6.1
			l-0.8-0.7l2-1.8l1.9,1.5l0.7-0.7l0.1,0.1l-1.7,1.5v4.9l-4.3,2.6l-2.2-1.7L56.1,20.9"/>
		<path d="M143.3,15.4l-1.9,1.4v-4.6L143.3,15.4 M143.2,11c0,0-1.3,0.8-2.1,1.3c-0.9,0.5-2,1.1-2,1.1v5.3l-0.8,0.6l0.1,0.1l0.7-0.6
			l2.3,2.1l4.1-3.2l-0.1-0.1l-2.2,1.8l-1.8-1.7v-0.6l3.7-2.7L143.2,11z"/>
		<polyline points="124.2,13.2 124.3,13.3 125,12.7 126.2,13.9 126.2,18.3 125.6,18.8 127.4,20.8 129.2,19.1 128.5,18.3 128.5,13 
			128.9,12.6 130.2,14.1 130.2,18.5 129.7,18.9 131.4,20.8 133.1,19 132.5,18.3 132.5,13 132.9,12.6 134.2,14 134.2,18.4 
			133.8,18.8 135.7,20.8 138.1,18.6 138,18.4 137.4,19 136.5,18 136.5,13 137.4,12.3 137.3,12.2 136.4,12.9 134.7,11 132.3,12.9 
			130.6,11 128.3,12.9 126.6,11.1 124.2,13.2 		"/>
		<polyline points="119.2,13.1 119.3,13.2 119.9,12.6 120.9,13.8 120.9,18.8 120.2,19.5 120.3,19.6 121,18.9 122.7,20.8 125,18.7 
			124.9,18.6 124.2,19.2 123.3,18.1 123.3,13.2 124.1,12.5 124,12.3 123.2,13 121.5,11 119.2,13.1 		"/>
		<polyline points="119.8,8.9 121.6,7.3 123,8.9 121.3,10.5 119.8,8.9 		"/>
		<path d="M112.5,16.8v-5.6l-1.7,0.8c0,0-0.4,1-0.4,2.4c0.1,1.1,0.7,2.4,1.1,2.9L112.5,16.8 M117.4,5.3c0.4,0,1.1,0.2,1.6,0.7
			c0.5,0.5,0.6,1.3,0.5,2c-0.2,0.6-0.3,0.9-1,1.4c-0.6,0.4-1.4,0.4-1.4,0.4v2.7l1.3,1.1l-1.3,1.1v3.7c0,0,1.3-0.8,2.1-2.4
			c0,0,0-0.1,0.1-0.3c0.1,0.5,0,1.4-0.5,2.5c-0.4,0.9-1.1,1.7-2,2.2c-1.6,0.9-2.7,0.9-4,0.7c-1.5-0.3-2.8-1.1-3.7-2.6
			c-0.6-1-0.9-2.2-0.9-3.5c0.1-2.5,1.9-4.6,4-5.4c0.3-0.1,0.4-0.2,0.7-0.2c-0.2,0.1-0.4,0.3-0.6,0.4c-0.7,0.4-1.3,1.3-1.5,2l4.1-1.8
			v5.8l-3.3,1.7c0.4,0.5,1.5,1.3,2.5,1.4c1.7,0.2,2.7-0.5,2.7-0.5v-3.8l-1.3-1.1l1.3-1.1V9.7c-0.7-0.1-1.6-0.3-2.1-0.4
			c-0.7-0.2-3.2-0.9-3.6-0.9c-0.4-0.1-0.9,0-1.2,0.2c-0.3,0.3-0.5,0.7-0.3,1.1c0.1,0.2,0.2,0.4,0.4,0.5c0,0-0.1,0-0.4-0.2
			c-0.5-0.3-0.8-0.8-0.9-1.5c-0.1-0.9,0.3-1.7,1-2.2c0.6-0.4,1.4-0.7,2.2-0.6c1.2,0.2,2.9,0.9,4.3,1.2c0.6,0.1,1,0.2,1.4,0
			c0.2-0.1,0.5-0.5,0.2-0.9c-0.3-0.5-0.9-0.5-1.4-0.6C117,5.3,117.1,5.3,117.4,5.3z"/>
		<path d="M148.5,12v2.6l0.9,0.8c0,0,1.9-1.5,2.6-3c0,0-0.9,1.2-2,0.8C149,13,148.5,12,148.5,12 M146.4,19c0,0,0.8-1.4,2.3-1.1
			c1.4,0.3,1.9,1.7,1.9,1.7v-3.4l-1-0.8C148.5,16.5,146.6,18.1,146.4,19z M147.7,21.6c-0.3,0.1-1.4-0.2-1.7-1.4
			c-0.3-1.2,0.5-2,1.8-3.2l-1.5-1.3V13c0,0,1.1-0.5,1.9-1.1c0.8-0.5,1.7-1.1,1.7-1.1s0.6,0.8,1.3,0.7c1.1-0.1,1.1-1,1-1.2
			c0.2,0.3,0.7,1.3-1.3,3.6l1.6,1.3v3.3c0,0-1.8,1-3.6,2.2c0,0-1-1.2-1.8-0.6C146.7,20.6,146.9,21.3,147.7,21.6z"/>
		<path d="M83.9,17.8l2.1,1.9V14l-2.1-1.9V17.8 M88.1,13.2l0.7-0.7l0.1,0.1l-0.7,0.6v5.3c0,0-1.3,0.7-2.2,1.2
			C85,20.3,84,20.9,84,20.9l-2.4-2L81,19.4l-0.1-0.1l0.7-0.6V13h0c0,0,1.1-0.5,2.1-1.1c0.9-0.5,1.8-1.1,1.8-1.1L88.1,13.2z"/>
		<path d="M92.9,12.6l1.5-1.6c0,0,0.2,0.2,0.4,0.3c0.1,0.1,0.6,0.3,1,0.1c0.2-0.1,0.3-0.2,0.5-0.4c0.1,1.2-0.5,2.1-1.3,2.4
			c-0.3,0.1-1.2,0.4-2.1-0.7v5.7l1,0.9l0.8-0.7l0.1,0.1l-2.6,2.1l-1.9-1.8l-0.7,0.7l-0.1-0.1l1.1-1l0-4.9l-0.8-1.1l-0.7,0.6L89,13.2
			l2.5-2.2L92.9,12.6"/>
		<path d="M99.4,15l2.9-4.1c0,0,0.4,0.4,1,0.6c0.9,0.2,1.7-0.6,1.7-0.6c-0.1,1.1-0.7,2.4-1.9,2.6c-1,0.2-2-0.6-2-0.6l-0.2,0.3l4,6
			l0.8-0.7l0.1,0.1l-2.7,2.4L99.4,15"/>
		<path d="M97,9.4C97,8.6,96.6,8,96.2,8l3.1-2.2v12.4l0,0l0.8,0.9l0.6-0.5l0.1,0.1l-2.5,2.2l-1.7-1.6l-0.7,0.6l-0.1-0.1l1.2-1V9.4"
			/>
		<path d="M77,12.9c0,0-0.3,0.4-0.9,0.4c-0.5,0-0.9-0.4-0.9-0.4v1.7c0,0,0.4-0.4,0.9-0.4c0.5,0,0.9,0.4,0.9,0.4V12.9 M77,9.3
			l-1.2-1.1l-0.6,0.5v4c0,0,0.4,0.5,0.9,0.5c0.5,0,0.9-0.4,0.9-0.4V9.3z M75.2,20.6c0,0,0.7,0.2,1.3-0.2c0.6-0.5,0.5-1.2,0.5-1.2
			v-4.3c0,0-0.3-0.4-0.9-0.4c-0.5,0-0.9,0.5-0.9,0.5V20.6z M71,9.2c0-0.8-0.3-1.3-0.9-1.3c-0.8,0-1,1.1-1,1.1S69,8.2,69.7,7.4
			c0.4-0.4,1.2-1,2.3-0.8c1.2,0.3,1.6,1.2,1.6,2.1v11.5c0,0,0.5,0.1,0.8,0.1c0.4,0.1,0.7,0.2,0.7,0.2V6.6h0.2v1.9l2.5-2l1.8,1.6
			l0.9-0.7l0.1,0.1l-0.9,0.8V19c0,0.7-0.2,1.4-0.8,1.8c-1.5,0.9-3.2-0.1-4.8-0.4c-1.2-0.2-3-0.4-3.5,0.7c-0.2,0.4-0.1,0.9,0.4,1.3
			c1.1,0.7,5.8-1.2,7.5-0.4c1.5,0.7,1.5,1.8,1.3,2.5c-0.4,1.4-2.2,1.7-2.2,1.7s0.9-0.5,0.6-1.3c-0.1-0.4-0.4-0.5-1.3-0.4
			c-2,0.2-4.5,1.2-6.1,0.5c-0.8-0.4-1.4-1.4-1.4-2.4c0-1.5,1.8-2.1,1.8-2.1v-5.5c0-0.2-1-0.2-1.2,0.2c-0.3,0.6,0.4,0.9,0.4,0.9
			s-0.6,0.1-1-0.5c-0.2-0.3-0.7-1.2-0.1-2.1c0.5-0.7,1.1-0.8,1.9-0.9V9.2z"/>
	</g>
</g>
</svg>
