<?xml version="1.0" encoding="utf-8"?>
<!-- Generator: Adobe Illustrator 22.1.0, SVG Export Plug-In . SVG Version: 6.00 Build 0)  -->
<svg version="1.1" id="Layer_1" xmlns="http://www.w3.org/2000/svg" xmlns:xlink="http://www.w3.org/1999/xlink" x="0px" y="0px"
	 viewBox="0 0 200 28.5" style="enable-background:new 0 0 200 28.5;" xml:space="preserve">
<style type="text/css">
	.st0{fill:#A29A8D;}
	.st1{fill:#f52812;}
</style>
<g>
	<g>
		<path class="st0" d="M10.4,15.7V8.5l-2.1,1c0,0-0.5,1.2-0.5,3c0.1,1.4,0.9,3.1,1.5,3.7L10.4,15.7 M16.7,1c0.5,0,1.4,0.3,2,0.9
			c0.7,0.6,0.8,1.6,0.6,2.5c-0.2,0.8-0.4,1.2-1.3,1.8c-0.8,0.6-1.8,0.5-1.8,0.5V10l1.7,1.4l-1.7,1.4v4.7c0,0,1.7-1,2.7-3.1
			c0,0,0-0.1,0.1-0.3c0.1,0.6,0,1.7-0.6,3.2C18,18.3,17.1,19.4,16,20c-2,1.1-3.5,1.2-5.1,0.9c-1.9-0.4-3.6-1.4-4.7-3.3
			C5.3,16.4,5,14.9,5,13.3c0.1-3.2,2.4-5.9,5.1-6.9c0.3-0.1,0.5-0.2,0.9-0.2c-0.2,0.1-0.5,0.3-0.8,0.5C9.4,7.2,8.7,8.3,8.4,9.2
			l5.3-2.4v7.4l-4.3,2.1c0.5,0.7,2,1.7,3.2,1.8c2.1,0.2,3.4-0.7,3.4-0.7v-4.8l-1.7-1.4L16,10V6.6c-0.9-0.1-2-0.4-2.7-0.6
			c-0.9-0.2-4.1-1.1-4.6-1.2C8.3,4.8,7.7,4.8,7.3,5.1C6.9,5.5,6.7,6,6.8,6.6C6.9,6.9,7.1,7,7.3,7.2c0,0-0.2,0-0.5-0.2
			C6.2,6.6,5.7,5.9,5.7,5.1C5.6,4,6.1,2.9,7,2.2c0.8-0.5,1.7-0.9,2.8-0.7c1.6,0.2,3.6,1.1,5.5,1.5C16,3.3,16.6,3.3,17.1,3
			c0.2-0.2,0.7-0.6,0.3-1.2C17,1.1,16.3,1.2,15.6,1C16.2,0.9,16.3,0.9,16.7,1z"/>
		<path class="st0" d="M37.3,13.8l-2.4,1.8V9.7L37.3,13.8 M37.2,8.2c0,0-1.6,1-2.7,1.6c-1.1,0.6-2.5,1.4-2.5,1.4V18l-1,0.8l0.1,0.1
			l0.9-0.8l3,2.7l5.2-4.1l-0.1-0.1l-2.9,2.2l-2.4-2.2v-0.8l4.7-3.5L37.2,8.2z"/>
		<path class="st0" d="M23.6,23.4c0.7,0.2,1.9,0.3,3.3-0.5c1.6-0.8,2.4-2.5,2.4-4.2l0.1-2.5v-5.4l1-0.8l-0.1-0.1l-1,0.8L27,8.1
			l-3,2.6V1.9l-3.7,2.9C20.5,4.9,21,5,21,5.7v12.2l-1.6,1.2l0.1,0.2l0.8-0.6l2.1,2l3.3-2.7l-0.1-0.1l-0.8,0.6L24,17.7l0-6.8l1-0.8
			l1.5,1.8c0,0,0,4.4,0,5.9c0,1.6,0,3.5-0.8,4.4C24.8,23.1,24.5,23.1,23.6,23.4"/>
		<path class="st0" d="M46.8,22.8c-1.3-0.2-1.9-1-1.9-1.6c0-0.4,0.4-1.2,1.2-1.3c0.8-0.1,1.6,0.3,2.3,1.1l3.1-3.4l-0.1-0.1l-0.8,0.9
			c-0.8-1-2-1.6-3.2-1.7V6.2l8,14.6c0,0,0.1,0.2,0.4,0.2c0.3,0,0.2-0.2,0.2-0.2l0-14.7c0.7,0,1.6-0.4,2.1-0.9
			c1.5-1.6,0.9-3.3,0.7-3.5c-0.1,0.8-0.7,1.5-1.6,1.5c-1.3,0-2-0.9-2-0.9l-3.1,3.5l0.1,0.1l0.9-1c1.1,1,1.9,1.1,2.7,1.1l0,8.5
			L49.8,3.8c-0.5-0.9-1.4-1.7-2.6-1.7c-1.5,0-2.5,1.3-2.7,2.4c-0.1,1.3,0,1.6,0,1.6s0.2-1.4,1.1-1.4c0.8,0,1.2,0.7,1.5,1.3v3.1
			c-0.8,0.1-2.9,0.1-3,2.3c0,0.8,0.5,1.7,0.9,2c0.6,0.4,1,0.4,1,0.4s-0.7-0.4-0.5-1.1c0.2-0.6,1.5-0.7,1.6-0.5v4.4
			c-0.6,0-2.7,0.1-3.6,1.8c-0.6,1.1-0.5,2.3,0.1,3.1C44.1,22.2,45.1,23.1,46.8,22.8"/>
		<path class="st0" d="M63.8,13.8l-2.4,1.8V9.7L63.8,13.8 M63.7,8.2c0,0-1.6,1-2.7,1.6c-1.1,0.6-2.5,1.4-2.5,1.4V18l-1,0.8l0.1,0.1
			l1-0.8l3,2.7l5.2-4.1l-0.1-0.1l-2.9,2.2l-2.3-2.2v-0.8l4.7-3.5L63.7,8.2z"/>
		<path class="st0" d="M70.9,20.9l-2.5-2.1l-1.1,0.8l-0.1-0.2l1.1-0.8v-5.9c0.1-2.4-2.2-1.8-2.1-4.4c0.1-1.1,1.1-2,1.7-2.3
			c0.6-0.3,1.2-0.3,1.2-0.3s-1,0.7-0.8,1.6c0.4,1.4,2.8,1.6,2.9,3.5v6.7l1.8,1.5l0.5-0.4v-7.2l-1-1l2.5-2.2l2.3,2l-0.9,1v6.4
			l2.2,1.8l0.4-0.2v-7.7l-1-0.9l2.5-2.3l2.4,2l0.9-0.8L84,9.4l-2.1,1.9v6.3l-5.4,3.3l-2.8-2.2L70.9,20.9"/>
		<path class="st0" d="M182.2,13.8l-2.4,1.8V9.7L182.2,13.8 M182.1,8.2c0,0-1.6,1-2.7,1.6c-1.1,0.6-2.6,1.4-2.6,1.4V18l-1,0.8
			l0.1,0.1l0.9-0.8l3,2.7l5.2-4.1l-0.1-0.1l-2.9,2.2l-2.4-2.2v-0.8l4.7-3.5L182.1,8.2z"/>
		<polyline class="st0" points="157.8,11 158,11.2 158.9,10.3 160.4,12 160.4,17.6 159.7,18.2 161.9,20.8 164.2,18.5 163.3,17.5
			163.3,10.7 163.9,10.3 165.5,12.1 165.5,17.7 164.9,18.3 167,20.7 169.3,18.4 168.4,17.6 168.4,10.7 169,10.2 170.7,12.1
			170.7,17.7 170.1,18.2 172.5,20.8 175.6,17.9 175.5,17.7 174.7,18.4 173.6,17.1 173.6,10.7 174.7,9.9 174.6,9.7 173.4,10.6
			171.3,8.2 168.2,10.6 166.1,8.3 163.1,10.6 161,8.3 157.8,11 		"/>
		<polyline class="st0" points="151.4,10.8 151.6,11 152.4,10.3 153.7,11.8 153.7,18.2 152.8,19 152.9,19.2 153.8,18.4 155.9,20.8
			158.9,18.1 158.8,17.9 157.9,18.7 156.7,17.3 156.7,11 157.7,10.1 157.6,9.9 156.6,10.8 154.4,8.3 151.4,10.8 		"/>
		<polyline class="st0" points="152.3,5.5 154.6,3.5 156.4,5.5 154.1,7.6 152.3,5.5 		"/>
		<path class="st0" d="M143,15.7V8.5l-2.1,1c0,0-0.5,1.2-0.5,3c0.1,1.4,0.9,3.1,1.5,3.7L143,15.7 M149.3,1c0.5,0,1.4,0.3,2,0.9
			c0.7,0.6,0.8,1.6,0.6,2.5c-0.2,0.8-0.4,1.2-1.3,1.8c-0.8,0.6-1.8,0.5-1.8,0.5V10l1.7,1.4l-1.7,1.4v4.7c0,0,1.7-1,2.7-3.1
			c0,0,0-0.1,0.1-0.3c0.1,0.6,0,1.7-0.6,3.2c-0.5,1.1-1.4,2.2-2.5,2.8c-2,1.1-3.5,1.2-5.1,0.9c-1.9-0.4-3.6-1.4-4.7-3.3
			c-0.8-1.3-1.2-2.8-1.1-4.4c0.1-3.2,2.4-5.9,5.1-6.9c0.3-0.1,0.5-0.2,0.9-0.2c-0.2,0.1-0.5,0.3-0.8,0.5c-0.9,0.6-1.6,1.7-1.9,2.6
			l5.3-2.4v7.4l-4.3,2.1c0.5,0.7,2,1.7,3.2,1.8c2.1,0.2,3.4-0.7,3.4-0.7v-4.8l-1.7-1.4l1.7-1.3V6.6c-0.9-0.1-2-0.4-2.7-0.6
			c-0.9-0.2-4.1-1.1-4.6-1.2c-0.5-0.1-1.1-0.1-1.5,0.3c-0.4,0.3-0.6,0.9-0.4,1.5c0.1,0.3,0.3,0.5,0.5,0.6c0,0-0.2,0-0.5-0.2
			c-0.6-0.4-1.1-1.1-1.1-1.9c-0.1-1.1,0.4-2.2,1.3-2.8c0.8-0.5,1.7-0.9,2.8-0.7c1.6,0.2,3.6,1.1,5.5,1.5c0.7,0.2,1.3,0.2,1.8-0.1
			c0.2-0.2,0.7-0.6,0.3-1.2c-0.4-0.7-1.2-0.7-1.8-0.8C148.7,0.9,148.8,0.9,149.3,1z"/>
		<path class="st0" d="M188.9,9.5v3.4l1.1,1c0,0,2.4-2,3.3-3.8c0,0-1.1,1.5-2.6,1C189.5,10.7,188.9,9.5,188.9,9.5 M186.1,18.5
			c0,0,1.1-1.8,2.9-1.4c1.8,0.4,2.4,2.2,2.4,2.2V15l-1.2-1.1C188.8,15.3,186.4,17.3,186.1,18.5z M187.9,21.7
			c-0.3,0.1-1.8-0.3-2.2-1.8c-0.3-1.5,0.7-2.5,2.3-4.1l-1.9-1.7v-3.3c0,0,1.4-0.7,2.4-1.4c1.1-0.7,2.2-1.4,2.2-1.4s0.8,1,1.7,0.9
			c1.4-0.1,1.4-1.2,1.3-1.5c0.2,0.4,0.9,1.7-1.6,4.6l2,1.6v4.2c0,0-2.4,1.2-4.6,2.9c0,0-1.2-1.6-2.3-0.8
			C186.5,20.5,186.9,21.3,187.9,21.7z"/>
		<path class="st0" d="M106.4,16.9l2.6,2.4V12l-2.6-2.4V16.9 M111.8,11l0.9-0.8l0.1,0.1l-0.9,0.8v6.7c0,0-1.7,0.9-2.9,1.6
			c-1.2,0.7-2.4,1.4-2.4,1.4l-3.1-2.6l-0.8,0.7l-0.1-0.1l0.9-0.8v-7.2h0c0,0,1.5-0.7,2.7-1.4c1.1-0.6,2.3-1.3,2.3-1.3L111.8,11z"/>
		<path class="st0" d="M117.9,10.3l2-2c0,0,0.3,0.2,0.5,0.4c0.1,0.1,0.7,0.4,1.3,0.1c0.3-0.2,0.3-0.2,0.7-0.5
			c0.1,1.6-0.7,2.7-1.6,3.1c-0.4,0.2-1.5,0.5-2.7-0.9v7.2l1.2,1.1l1-0.9l0.1,0.2l-3.3,2.7l-2.5-2.3l-0.9,0.8l-0.1-0.2L115,18l0-6.2
			l-1-1.4l-0.9,0.8L113,11l3.2-2.8L117.9,10.3"/>
		<path class="st0" d="M126.2,13.3l3.6-5.3c0,0,0.5,0.6,1.3,0.8c1.1,0.3,2.1-0.8,2.1-0.8c-0.2,1.4-0.9,3-2.4,3.3
			c-1.3,0.2-2.5-0.8-2.5-0.8l-0.2,0.4l5.1,7.6l1-0.9l0.1,0.1l-3.5,3L126.2,13.3"/>
		<path class="st0" d="M123.2,6.2c0-1.1-0.5-1.8-1.1-1.8l4-2.8v15.8l0,0l1,1.1l0.8-0.7L128,18l-3.2,2.8l-2.2-2l-0.9,0.8l-0.1-0.1
			l1.5-1.3V6.2"/>
		<path class="st0" d="M97.7,10.7c0,0-0.4,0.5-1.1,0.5c-0.7,0-1.1-0.5-1.1-0.5v2.2c0,0,0.5-0.5,1.1-0.5c0.7,0,1.1,0.5,1.1,0.5V10.7
			 M97.7,6.1l-1.5-1.3l-0.7,0.6v5.1c0,0,0.5,0.6,1.1,0.6c0.7,0,1.1-0.6,1.1-0.6V6.1z M95.4,20.4c0,0,0.9,0.2,1.6-0.3
			c0.8-0.6,0.7-1.5,0.7-1.5v-5.5c0,0-0.4-0.6-1.1-0.6c-0.7,0-1.1,0.6-1.1,0.6V20.4z M90,6c0-1.1-0.4-1.7-1.1-1.7
			c-1,0-1.3,1.4-1.3,1.4s-0.2-1.1,0.7-2.1c0.5-0.6,1.5-1.3,3-1c1.6,0.4,2,1.6,2,2.6V20c0,0,0.6,0.1,1,0.2c0.5,0.1,0.9,0.2,0.9,0.2
			V2.6h0.2V5l3.2-2.6l2.3,2.1l1.1-0.9l0.1,0.1l-1.1,1v13.7c-0.1,0.9-0.2,1.8-1,2.3c-1.9,1.1-4.1-0.2-6.2-0.5
			c-1.5-0.2-3.8-0.5-4.4,0.9c-0.2,0.5-0.2,1.1,0.5,1.6c1.4,0.9,7.4-1.5,9.5-0.6c1.9,0.9,1.9,2.3,1.6,3.2c-0.5,1.8-2.8,2.1-2.8,2.1
			s1.1-0.6,0.8-1.7c-0.2-0.5-0.5-0.7-1.7-0.6c-2.6,0.3-5.7,1.6-7.8,0.7c-1.1-0.4-1.8-1.8-1.8-3.1c0.1-1.9,2.3-2.7,2.3-2.7v-7
			c-0.1-0.3-1.2-0.2-1.5,0.3c-0.4,0.8,0.5,1.1,0.5,1.1s-0.7,0.1-1.3-0.6c-0.3-0.3-0.9-1.5-0.1-2.7c0.7-0.9,1.5-1.1,2.4-1.2V6z"/>
	</g>
</g>
<g>
	<path class="st1" d="M198.8,11.7c0.1-0.2,0-0.7-0.3-0.6l-0.2,0.9L198.8,11.7z"/>
	<path class="st1" d="M196.8,10.2c-0.3,0.4-0.7,1.2-0.4,1.9c0.3-0.8,0.4-0.5,0.7-1.5c0.3-0.1,0.5,0.3,0.5,0.6
		c0.1-0.2,0.5,0.2,0.6-0.4c-0.4-0.6-0.9-0.7-1.3-0.1C196.7,10.6,196.8,10.4,196.8,10.2z"/>
	<path class="st1" d="M168.7,9.9l0.2,0.1C168.8,9.9,168.8,9.9,168.7,9.9z"/>
	<path class="st1" d="M151.3,10c0.1,0,0.2-0.1,0.2-0.2C151.3,9.8,151.2,9.9,151.3,10z"/>
	<path class="st1" d="M148.3,9.1c0.1,0,0.1,0,0.2,0.1C148.4,9.1,148.3,9.1,148.3,9.1z"/>
	<path class="st1" d="M168.7,9.9l-0.5-0.2C168.2,9.9,168.5,9.8,168.7,9.9z"/>
	<path class="st1" d="M193,12.4c0.1,0,0.2-0.1,0.2-0.2c-0.1,0-0.2,0.1-0.2,0.1C193,12.3,193,12.4,193,12.4z"/>
	<path class="st1" d="M176.3,8.9l0.1,0c0-0.1,0.1-0.2,0.1-0.3L176.3,8.9z"/>
	<path class="st1" d="M182.2,8.6c-0.1,0-0.2,0.7-0.2,1c0.1-0.3,0.2-0.4,0.3-0.5C182.3,9,182.3,8.8,182.2,8.6z"/>
	<path class="st1" d="M191.6,9.5l0.2-0.1C191.7,9.5,191.7,9.5,191.6,9.5z"/>
	<path class="st1" d="M172.1,8.9c0-0.1,0-0.2-0.1-0.3C172.1,8.7,172.1,8.8,172.1,8.9z"/>
	<path class="st1" d="M7.6,19.7c0-0.1,0-0.1,0-0.1C7.6,19.7,7.6,19.7,7.6,19.7z"/>
	<path class="st1" d="M0.7,16.4L0.7,16.4c0.1-0.2,0.1-0.3,0.1-0.4L0.7,16.4z"/>
	<path class="st1" d="M142.8,8.4C142.8,8.4,142.8,8.4,142.8,8.4C143,8.3,142.9,8.3,142.8,8.4z"/>
	<path class="st1" d="M92.9,10.6c0.6,0.6-0.9,0.9,0,1.5C92.8,11.8,93.6,11,92.9,10.6z"/>
	<path class="st1" d="M192.9,12.3c-0.1,0-0.2,0-0.2,0C192.7,12.4,192.8,12.3,192.9,12.3z"/>
	<path class="st1" d="M92.9,12.1C92.9,12.1,92.9,12.1,92.9,12.1L92.9,12.1C92.9,12.2,92.9,12.1,92.9,12.1z"/>
	<path class="st1" d="M130.3,9.2c0,0.1,0.1,0.2,0.1,0.3C130.4,9.5,130.4,9.4,130.3,9.2z"/>
	<path class="st1" d="M139.7,10l-0.2-0.1C139.5,9.9,139.6,10,139.7,10z"/>
	<path class="st1" d="M125.5,10.4c-0.1-0.1-0.2-0.1-0.3,0c0,0,0,0.1,0.1,0.1C125.2,10.4,125.3,10.3,125.5,10.4z"/>
	<path class="st1" d="M120.4,10.6c0,0.1,0.1,0.1,0.1,0.1c0,0,0.1,0,0.2,0L120.4,10.6z"/>
	<path class="st1" d="M22.9,18.9c-0.1-0.2-0.2-0.4-0.3-0.6C22.8,18.8,22,19,22.9,18.9z"/>
	<path class="st1" d="M193,12c0,0.2-0.1,0.3-0.1,0.3c0.1,0,0.1,0,0.2,0C193,12.2,193,12.1,193,12z"/>
	<path class="st1" d="M125.5,16.1l-0.8-0.1C124.9,16.1,125.2,16.1,125.5,16.1z"/>
	<path class="st1" d="M59.1,17.6l-0.2,0.1C59,17.7,59.1,17.7,59.1,17.6z"/>
	<path class="st1" d="M122.3,16.2c-0.2-0.2-0.3-0.4-0.5-0.5c0,0.1-0.1,0.1-0.1,0.2L122.3,16.2z"/>
	<path class="st1" d="M22.7,18.3C22.7,18.3,22.7,18.3,22.7,18.3C22.7,18.3,22.7,18.3,22.7,18.3z"/>
	<path class="st1" d="M17.5,20.1c0.8,0,0.3-0.9,0.5-1.5c0.9-0.3,0.4,0.7,0.8,1.2c0.6-0.3,1-1.1,1.4-1.1c0,0.2,0.1,0.2,0,0.4
		c0.6-0.8,1.8-0.1,2.5-1.1c0.1,0.1,0.1,0.2,0.1,0.2c-0.1-0.5-0.2-0.9-0.2-1.3c0.3,0,0.6-0.6,0.8,0c-0.2,0-0.2,0.2-0.3,0.4l0.3-0.3
		c0.4,0.9-0.5,0.3-0.5,1c0.7-0.3,1.5-1.1,2-0.8c0.1,0.9-1.2,0.3-0.5,1.1L23.6,18c0.7,1.3-0.5-0.1,0.1,1.4c1.1,0.2,1.2-0.5,2.3-0.3
		c0.2-0.5-0.1-0.7,0.1-1.2c1.5-0.9,1.3,2.1,2.4,0.9c0.3-0.6,0.4-1.7,1.2-1.1l-0.2,1c1.1,0.1,0.6-1.4,1.7-0.8
		c-0.2,0.4-0.8,0.4-0.7,0.5c0.7,0.7,0.5-0.6,1-0.6l0.1,0.9c1.1-0.2,2.3-0.8,3.6-1c-0.1,0.3-0.3,0.5,0,0.8c1.6-0.5,3.4,0,4.9,0.5
		l0.6-0.8c0.1,0,0.3,0.3,0.1,0.5c0.6,0.3,0-0.5,0.3-0.8c0.3-0.1,0.5,0.4,0.3,0.6c1-0.7,2.9-1.5,4-0.7L45.2,18
		c0.9,0.3,0.9-1.6,1.7-0.9l-0.1,0.1c1.9,0.3,3.9-0.5,5.3,0.6c0.2-1.1,1.9,0.4,1.9-1.1c1.1,0.7,0.8,1,2.3,1.4c0.4,0.1,0.6-1,1.1-1.1
		l0,0.8l0.6-0.8l0.4,0.9l0.5-0.2c-0.2,0-0.4-0.3-0.4-0.6c0.7-0.4,1.8,0.5,1.8,0.9l1.7-0.7c0,0.3-0.3,0.4-0.5,0.6
		c0.9-0.8,0.2,0.8,1,0.1c-0.1-0.2,0-0.5,0.1-0.6c0.4,0.5,1.4,0.4,2.1,0.2l-0.1,0.5c1.3,0.1,2.7-0.3,4.1-0.4c-0.5-0.2-0.4-1.2,0-1.3
		l0.2,0.8c0.3-0.5-0.4-0.3,0.1-0.9c0.5,0.1,0.4,0.9,0.1,1.2l0.6-0.3c0,0.2-0.1,0.4-0.1,0.7c0.2-0.5,1.1,0.8,1.5-0.1l0,0.2
		c1.4,0,2.1-0.3,3.2-0.4c0-0.7,0.5-0.6,0.8-1.2c0.9,0.2,1.8,0.7,2.8,0.6c0.7-0.4,0.2-0.6,0.5-1.1c0.1,0.7,1.1,0.6,0.6,1
		c1.2-0.1,1.6-0.2,3.1-0.8c-0.2-0.3-0.4-0.4-0.3-0.6c0.3-0.1,0.7,0.3,0.6,0.6l-0.1,0.1c1.7-1,4.1,1.8,5.4,0.4l-0.1,0.1l1.4-0.8
		c0.7,0.1-0.4,0.5,0.1,0.9c1.5-1.1,2.5,0.1,3.7-0.7c1.1,1.9,3.5-0.3,4.9,0.9l-0.1-0.5c0.3-0.5,0.4,0.2,0.7,0.3
		c0-0.4-0.4-0.4-0.2-0.6c2.9-0.6,6.1,0.5,9.1,0.8c1.1,0.1,0.5-2.4,2-1.3l-0.4,0.9c2.2-1.1,4.5-0.1,6.7-1c-0.1,0.2-0.1,0.5-0.3,0.5
		c0.5,0.6,1.7,0,1.7-0.5c0.3,0,0.1,0.4,0.3,0.7c0.5,0.3,1.1-0.8,1.4-0.2c0,0.1-0.1,0.2-0.2,0.3c0.3-0.3,1.4,0,1.1-0.7
		c0.8,0.3,1.5-0.4,2.2,0c0.4-0.8,1.4,0.3,1.5-0.8c0,1.2,1.5,0.9,2,0.3c-0.2,0.4,0.5,0.3,0.3,0.8c0.6,0,1.1-0.3,1-0.9
		c1.1,1.3,2.1-1.2,2.8,0.6c1.7-0.7,3.3-1.2,4.9-1.5c0,1.2-1.7,0.2-1.6,1.4c1.5-0.5,2.3-1.5,3.8-1.3c0.4,0.1-0.2,0.5-0.3,0.7
		c1.5-0.5,2.9,0,4.2-0.7c0,0.1-0.1,0.2-0.3,0.3c0.3,0,0.6,0.1,0.6-0.4l-0.2,0.1c-0.4-0.7,1-1.6,1-2c-0.4,1.5,1.3,0.3,0.7,2.3
		c0.2-0.1,0.4-0.4,0.3-0.7c0.3,0.1,0.3,0.3,0.1,0.7c0.9-0.3,0.6-0.9,1.4-0.9c0,0.3-0.2,0.4-0.2,0.7c0.4-0.5,0.8-1,1.6-0.8
		c0,0.2,0.1,0.3-0.2,0.4c1.2-0.1,2.1-1.4,3.4-1c-0.4,1.1,0.5,0.3,0.6,1.3l0.7-0.3l-0.3-0.5c0.6,0,1.2-0.7,1.7-0.4l-0.5,0.4l1.2-0.2
		l-0.7-0.3c0.6-0.5-0.1-1.2,0.7-1c-0.2,0.1,0.6,0,1,0.5c0,0,0,0,0,0c0.3-0.3,0.6-0.6,1.1-0.4c0.1,0.3-0.1,1.1,0,1.3
		c0.3-0.8,1.5-0.3,1.8-1.1c-0.1,0.2-0.1,0.7-0.1,0.8l0.2-0.7c0.3,0.2,0.3,0.3,0.3,0.7c0.9,0.1-0.3-1.2,0.7-0.7
		c-0.1,0.1,0,0.2-0.2,0.3c1.1,0.2,2-0.5,3-0.2c0.3,0.9-0.8,0.3-0.5,1.1c1.4-0.2,2.9-1.2,4.2-1.1l-0.3-0.1c0.1-1.4,1,0.6,1.7,0
		c-0.2,0.1-0.2,0.8-0.2,0.6c0.9,0.2,1.9-0.4,3.3-0.9l-0.2,0.4c0.6,0.3,1.4,0.1,2,0.3c0.2-0.4,0.5-0.3,0.3-0.8
		c1.9,1.9,3.4-1.2,5.1,0.4c-0.2,0-0.5,0.3-0.3,0.3l1.4-0.4c-0.1-0.6-0.2-0.4-0.5-0.8c0.2-0.4,0.5-0.6,0.9-0.7
		c-0.6,0.4,0,0.9,0.3,1.3c-0.1-0.2,0-0.4,0-0.6c0.8,1,0.1-1.2,1.1-0.5l0,0.3c0.4-0.2,0.7-0.6,1.1-0.5c0.2,0.7-0.4,0.3-0.4,0.9
		c0.6-0.1,1.1-1.3,1.6-0.7c-0.2,0.2-0.6,0.2-0.8,0.4c0.6,0.8,0.6,0.6,1,0.7l0,0l1,0.3l-0.2-0.2c0.6-1.8,1.4-0.4,2.3-1.6
		c-0.9,1.1-0.1,0.6-0.2,1.4c0.2,0.2,0.6,0.4,0.5,0.7c0.4-0.6,0.8,0.5,1.4-0.5c0,0.2,0.5,0,0.4,0.6c0.6-0.2-0.2-0.4-0.1-0.7
		c0.9-0.9,2.1,1,3.4-0.2c1.1-0.5,1.3-1.4,2.3-1.8c0.4,0.4-0.3,0.9-0.3,0.9c0.6,0.3,1,0.3,1.5,0c-0.1,0.2,0,0.4,0.2,0.7
		c0.4-0.1,0.3-0.9,0.8-0.6c-0.1,0.3-0.2,0.7-0.4,1c0.5-0.2,1-0.7,1.5-1c0.2,0.4-0.3,0.7-0.5,1c0.6-0.2,1.5-0.4,1.6-1.1l-0.4-0.2
		c0.2,0,0.1,0.6,0,0.7c-0.5,0.6-0.7-0.2-0.8-0.5l0.4-0.2c-0.4-1.4-1.5,0.3-2.2,0.2l0.3-1.1l-0.7,0.9c-0.2-0.3-0.3-0.9,0.1-1
		c-0.5-0.5-0.5,0.4-0.9-0.2c-0.1-0.1,0-0.1,0-0.2l-0.5,0.3c0.1-0.2-0.1-0.7,0.2-0.6c-0.9-0.6-1.5,0.8-1.8,0.1l0.1-0.1
		c-1.3,0.4-0.1,0.8-1,1.7l-0.7-1.9l-0.1,0.8c-0.1,0-0.4-0.1-0.4-0.4c-0.5,0.5,0.1,0.3-0.2,0.8c-0.7-0.7-1.7,0.4-1.9-0.8
		c-0.2,0.6,0.6,0.4,0,0.9c-0.2-1.3-0.8,0.3-1.4-0.3c0.2-0.7,0.7-0.3,0.1-0.9c-0.3,1.2-1.1-0.2-1.6,0c0,0.9-1.1,0.4-1.9,0.8
		c0-0.3-1.6-0.5-2.3-0.8l0-0.2c-0.1,0.9-0.9,0.8-1.5,1c0-0.6,0.1-0.8,0.4-1l-0.5,0c-0.1,0.3-0.3,0.5-0.6,0.6l0.1-0.7
		c-0.7,0.1-1.4,0.9-2.4,0.4c0,0.7,0.8,1.8-0.2,2.3c0-0.4-0.1-1,0.1-1.1c-0.1,0-0.3,0.3-0.5,0.2l0.4-0.6c-0.4-0.2-0.2,0.5-0.5,0.5
		c0-0.5-0.3-0.4-0.2-0.8c0.1-0.1,0.3,0.2,0.4,0c-0.4-0.1-0.9-0.4-1-0.7c0,0.3,0,0.7-0.3,0.8c-0.7,0.1-0.3-0.6-0.7-0.8
		c-0.2,0.4-0.6,0-0.6,0.8c-0.2,0-0.3-0.3-0.3-0.5c-0.4,0.3-1.7,0.2-1.3,0.9l0.1,0c0,0,0,0-0.1,0c0,0,0,0,0,0l0,0
		c-1.2,0.8-2.6-0.3-3.8,0l0-0.3c-0.7,0.3-1.6,0.2-2.1,0.8c-0.2,0-0.5-0.4-0.4-0.7c-0.5,0.2-0.6,0.5-1.4,0.1c0.5-0.5-0.2-0.4,0.6-0.3
		c-0.7-0.2-0.9-0.6-1.7,0.1c0.2-0.7-0.6-0.8-0.9-0.6l0.5,0.4c-0.4,0.1-0.7,0.1-1.1,0l0.2-0.9c-1.5-1-2.6,1.8-3.8,0.2
		c-0.4,0.6,0.8,0.4,0.5,1.1c-0.7-0.1-1.4-1.3-1.6-1.3c-0.9-0.4-0.8,1.3-1.8,1c0.1,0.3,0.3,1.1-0.4,1.4c-0.7-0.1-0.9-1.2-0.5-1.5
		c0.2,0,0.2,0.1,0.2,0.2c0.2-0.1,0.5-0.3,0.2-0.6l-0.1,0.3c-0.3-0.3-1.3-0.2-1.1-0.7c-0.5,0.3-0.2,0.5,0.2,0.6
		c-0.9-0.4-1.4,0-2.3-0.2c0.1,0.2,0.3,0.5,0.1,0.5c-1.3-0.3-0.6,0.6-1.4,0.8c-0.5-0.4,0.1-1.1-0.7-0.7c-0.6-0.3-0.1-0.8,0.1-1.1
		c-0.8,0.6-1.5-0.3-2-0.4l0.4-0.3c-0.3,0.2-0.5,0.2-0.7,0.2l0.3,0.6c-0.3-0.1-0.5-0.1-0.5-0.3c-0.2,0.4,0.2,1-0.3,1.6
		c-0.3-0.3-1,0.4-1.2-0.4c1.1,0.2-0.1-0.8,0.7-1c-0.2,0.1-0.4,0.1-0.6,0c0-0.1,0-0.2,0.1-0.2c-1-0.7-0.4,0.9-1.5,0.9
		c0.1-0.5-0.3-0.9-0.4-0.7c0.4,0,0.2,0.7-0.1,1.1C140,9.4,140,10,139.7,10l0.4,0.2c-0.1,0.5-0.5,0.4-0.9,0.6
		c-0.1-0.4,0.4-0.3,0.2-0.4c-0.5,0.8-1.2-0.8-1.9-0.2c-0.3-0.3-0.1-0.8-0.4-1c-0.8,0.6-0.9-0.6-1.7-0.1c0.3,0.6,0.3,0.4-0.3,1.1
		l1.4-0.5l-0.9,0.9c0.4,0,0.9-0.4,1.1-0.3c-0.4,0.5-0.4,0.4-0.2,0.9c-0.6-0.9-1.1,0.6-1.8,0l0-1.5c-1-0.6-1.8,0.8-3.1,0.5l0.4,0.2
		c-0.2,0.6-0.8,0.1-1.2,0.4c0-0.5-0.2-0.7-0.4-1c0,0.4-1,0-1,1l-0.6-0.6c-1.1-0.2-1.2,1.5-2.2,1.3c0.3-0.6-0.2-0.9,0.5-1.3
		c-0.3,0-0.6-0.1-0.6,0.3c-0.2-0.3-0.9,0.7-1.2,0.2c-0.1,0.2-0.2,0.8-0.5,0.7c0-0.1,0-0.2,0-0.2c0,0.2-0.6,0.4-0.2,0.9
		c-1.1-1.5-2.9,0.2-3.9-1.1c-0.7,0.2-1.6,0.4-2.3,0.4c0-0.2,0-0.3,0.1-0.2c-0.9-0.4-0.5,1.5-1.6,1c-0.6-0.8,0.5-0.5,0.2-0.8
		c-0.2-1.7-1.3,0.3-2-0.7l0.2-0.1c-0.6-0.5-1.3,0.7-2.2,0.6c0,0,0-0.1,0-0.3c-0.6,0.9-1.7,1.2-2.6,1.4c0.2-0.7,0.4-0.4,0.2-1
		c-0.4,0.1,0.1,1.1-0.6,1.3c-0.3-0.3-0.8-0.6-0.9-1.3l0.7-0.1c-0.4-0.9-0.9,0.1-1.3-0.1l0-0.4c-1.1,0.2-1.1,1.2-2.3,1.1l0.1,0.3
		c-0.6,1-0.6-0.5-1.2,0.2l-0.2-1c-0.4,0.3-1.5,1-2.2,1.2c0.4-0.8,1.3-1.2,1.8-1.6c-0.4,0-1.4,0.1-1.6,0.6c0.2-0.1,0.4-0.4,0.5-0.2
		c-0.5,0.8-1.2,1.2-2,1.2c0.1-2-2.2-0.4-2.9-1.9c-1.5,0.8-3-0.2-4.7,0c0.7,1.5-0.5,0.1-0.3,1.6c-0.4,0.1-0.6,0.1-0.6,0l-1.3-0.9
		c-0.3-0.4,0.4-0.4,0.3-0.7c-0.9-0.1-0.4-0.6-1-1c0.1,0.6-0.3,0.8-0.8,0.6l0.7,0.7c-1.2,0.9-1.1-1.3-2.3-0.4l0.4-0.5
		c-0.6,0.3-2.4,0.1-3,1.3c-0.1-0.2-0.3-0.6,0-0.7c-1.5-0.1-3.4,1.4-4.6,0.7l0.1-0.4c-0.3,0.1-0.5,0.7-0.8,0.4c0-0.2,0.1-0.4,0-0.4
		c-0.1,0.1-0.7,0.7-1.1,0.5l0.3-0.4c-1.5-0.4-2.3,1.1-3.5,1.4c0-1.1-1.2-1.4-1.8-1.6l0-0.2c-1.7-0.1-2.9,1-4.5,1.5
		c-1-1.2-3.4-0.4-5-1c0.3,0.2,0,0.9-0.3,1c-0.4-0.2-1,0.8-1-0.2l0.1,0c-0.3-1-1.1-0.7-1.7-0.7L62,12.4c-1.7-1.9-4.1,0.9-5.1-0.9
		c-0.4,0.3-0.8,0.4-1.2,0.7l0-0.7c-1.1-0.1-1.6-0.2-2.9,0l0.3-0.5c-0.7,0-0.9,2.1-1.5,2.2l-0.2-1.1c-1.3,0.1-2.6-0.8-3.9,0.2
		c0-0.2,0-0.5,0.3-0.5c-0.6,0-2.4-0.7-2.1,0.8c0-1-1.3-0.1-2,0.4l0.1-0.7c-0.6,0.9-0.6,1.2-1.4,1.5c-0.2-0.1-0.2-0.6,0.1-0.4
		c-0.7-0.4-0.5,0.7-1.3,0.3l0.3-0.5c-0.7,0-0.6,0.2-1,0.8c-0.4,0.3-1.3-0.1-1.4-0.8c-0.1,0.4-0.4,0.9-0.8,0.8
		c-0.1-0.2,0.1-0.4,0.1-0.5c-1.1-0.4-1.6,0.9-2.4,0.2c0-0.2-0.1-0.4-0.1-0.4c0.9,0,1.6,0,1.5,0.1c0-0.7-0.7-0.7-0.2-1.7
		c-0.6,0.5-1.5,1.6-2.2,1.3c0-0.1-0.1-0.1-0.1-0.2l0.1-0.1c-0.2-0.1-0.3,0-0.4,0.1c-0.2-0.1-0.4-0.2-0.6-0.2
		c-0.1-0.5-0.8-0.3-1.2-0.3c0.1,0.7-0.4,0.6,0,1.2c-0.1,0,0.1-0.1,0.3-0.1c0.1,0,0.1,0,0.1-0.1c0,0,0,0,0,0.1c0.2,0,0.5-0.1,0.9-0.1
		c-0.3,0.4-0.6,0.7-1,0.3c-0.2,0.5-0.4,0.9-0.5,1.2c-0.5-1-1.5-1.5-1.6-2.1c-1.1,0.4-2.6,0.4-3.2,1.7c-0.3,0.2-0.4-0.4-0.5-0.6
		c0.2-0.1,0.4-0.1,0.5-0.3c-0.6,0.4-1.8,0.2-1.9,1.1c-0.8-0.4,0.4-0.9-0.7-0.7l0.1-0.3c-2.2-1.4-3.4,2.5-5.8,0.7
		c0.2,0.1,0.2,0.2,0.3,0.3c-2.7-0.8-5.5,1-8.1-0.3c-0.8-0.2-0.8,0.4-1.3,0.8l-0.2-0.8l-0.8,0.9c-1.1,0.7-2-1.8-3.3-0.5l0.2,0.5
		c-0.5-0.1-1.6,0.4-1.5-0.2c0,0.1-0.1,0.5-0.4,0.3l0-0.4l-1.2,0.7c-1-0.3,0.1-1.6-1.3-1.6c-0.5,0.2-1.4,1.2-1.2,1.5
		c0.2,0,0.5,0.2,0.6,0.6l-0.5,0.2c0,1.2-0.4,2.4,0.8,3.2l0.8-0.8l0.3,0.6L2,19.5c0.4,0.5,0.6,0,0.9-0.3c0.1,0.3,0.2,0.5,0.4,0.6
		L4,18.6c0.1,0.5-0.3,0.9,0.2,1.2c0.4-0.5-0.4-1,0.2-1.4c0.4,0.5,0.3,1,0.7,0.5c0.1,0.3,0,0.5-0.2,0.6c0.4-0.4,1.1-0.2,1.3-0.8
		c0.4,0.7,1.4-0.2,1.4,0.9c0.1-0.3,0.7-0.9,1.1-1c-0.6,1.4,1.4,0,1.3,1.5c0.5-1.2,1.8-0.6,2.7-1.3c0,0.1-0.1,0.3-0.2,0.2
		c0.5,0.1,0.7,0.4,1,0.7c0-1,0.8-1.3,1.2-1.9c0.6,0.9-0.3,1.2-0.1,2.1c-0.1-0.8,1-0.8,0.8-1.5c0.5,0.6,0.4,0.3,0.7,1.1
		c0-1.3,0.4-0.2,0.8-1c0.7,0.6,0.2,1.2,1,0.8C18.1,19.7,17.5,20.1,17.5,20.1z M35.2,17.4C35.2,17.4,35.2,17.4,35.2,17.4
		c-0.2,0-0.3,0.1-0.4,0.1C34.9,17.4,35,17.4,35.2,17.4z M36.7,17.3c-0.2,0-0.4,0-0.7,0c-0.1-0.2,0-0.5,0.1-0.5
		C36.1,17,36.5,17.1,36.7,17.3z M33.4,12.5c0.2-0.1,0.3,0,0.4,0.2c-0.1,0-0.2,0-0.4,0.1c0,0,0,0.1,0,0.1
		C33.3,12.7,33.4,12.6,33.4,12.5z"/>
	<path class="st1" d="M33,13.4C33,13.4,32.9,13.5,33,13.4c0,0.1,0,0.2,0.1,0.2c0-0.1,0.1-0.2,0.1-0.2C33.1,13.4,33,13.4,33,13.4z"/>
	<path class="st1" d="M168.9,10L168.9,10C168.9,10,168.9,10,168.9,10C168.9,10,168.9,10,168.9,10z"/>
	<polygon class="st1" points="57.5,18 57.5,17.8 57.3,18 	"/>
	<path class="st1" d="M177.2,12.2c0,0.1,0.1,0.1,0.1,0.2C177.4,12.3,177.3,12.2,177.2,12.2z"/>
	<path class="st1" d="M180.8,12.2l0.5,0.2C181.1,12.3,180.9,12.2,180.8,12.2z"/>
	<path class="st1" d="M183.6,12.5c0-0.1,0-0.2,0-0.3c0,0,0,0,0,0L183.6,12.5z"/>
	<path class="st1" d="M140,14.7c0,0-0.1,0-0.1,0C139.7,14.9,139.8,14.9,140,14.7z"/>
	<path class="st1" d="M152.9,12.6c-0.1,0.1-0.3,0.3-0.4,0.4C152.8,13,152.9,13.1,152.9,12.6z"/>
	<path class="st1" d="M125.5,16.1C125.5,16.1,125.5,16.1,125.5,16.1C125.5,16.1,125.5,16.1,125.5,16.1L125.5,16.1z"/>
	<path class="st1" d="M151.9,13c0.2,0.1,0.4,0.1,0.6,0C152.3,13,152.1,12.9,151.9,13z"/>
	<path class="st1" d="M195.5,12.4l0.1,0c0,0,0-0.1,0-0.1L195.5,12.4z"/>
	<path class="st1" d="M195.6,12.3l0.1-0.1C195.7,12.2,195.6,12.2,195.6,12.3z"/>
	<path class="st1" d="M196.1,12l-0.3,0.2C195.9,12.2,196,12.2,196.1,12z"/>
	<path class="st1" d="M191.8,12.2l0,0.3C191.8,12.4,191.8,12.3,191.8,12.2z"/>
	<path class="st1" d="M190.7,12.3c0.3,0.1,0.7,0.5,1,0.4l0-0.2C191.6,12.8,191,11.8,190.7,12.3z"/>
	<path class="st1" d="M186,9.2l0.9,0.2c-0.2-0.3-0.4-0.6,0-0.7C185.8,7.9,187.2,9.3,186,9.2z"/>
	<path class="st1" d="M183.1,8.9c0.5-0.1,0-0.4,0-0.6C182.8,8.6,182.8,8.7,183.1,8.9z"/>
	<path class="st1" d="M162.4,9.6l0-0.7C162.1,9.1,162.5,9.2,162.4,9.6z"/>
	<polygon class="st1" points="158.6,13.1 159,13.5 159.1,12.9 	"/>
	<polygon class="st1" points="156.1,8.5 156.3,8.4 155.6,8.7 	"/>
	<path class="st1" d="M121.3,9.9l0.1,0.8C121.7,10.6,121.7,9.7,121.3,9.9z"/>
	<path class="st1" d="M106.3,11.2c-0.2-0.4-0.6-0.6-0.9-0.2C105.8,11.1,106.2,11.4,106.3,11.2z"/>
	<polygon class="st1" points="61.2,11.4 61.5,11.1 61,11.4 	"/>
</g>
</svg>
