<?xml version="1.0" encoding="utf-8"?>
<!-- Generator: Adobe Illustrator 22.1.0, SVG Export Plug-In . SVG Version: 6.00 Build 0)  -->
<svg version="1.1" id="Layer_1" xmlns="http://www.w3.org/2000/svg" xmlns:xlink="http://www.w3.org/1999/xlink" x="0px" y="0px"
	 viewBox="0 0 140 28.5" style="enable-background:new 0 0 140 28.5;" xml:space="preserve">
<style type="text/css">
	.st0{fill:#A29A8D;}
	.st1{fill:#ED2024;}
</style>
<path class="st0" d="M14.2,24.5c-1.2-0.1-7.2-0.1-8.3,0v-0.2l1-0.1C7.7,24,8,23.5,8,19.8V5.1H7.1c-1.7,0-2.6,0.8-4.5,4.4l-1.3,2.4
	H1.1c0.1-1.5,0.5-6.2,0.5-7.7l0,0C2.5,4.3,6,4.4,6.8,4.4h8.1c1.1,0,5.2-0.7,6.1-1l0,0v7.3h0.1l0.5-0.5c1.3-1.5,2.5-2,3.7-2
	c2,0,3.3,1.1,3.3,3.5v5.3c0,3.6,0.3,4.1,1.2,4.3l0.5,0.1v0.2c-1.1-0.1-5.8-0.1-6.9,0v-0.2l0.2,0c0.7-0.2,1.1-0.6,1.1-4.3v-5.1
	c0-1.2-0.4-1.6-1.4-1.6c-0.4,0-0.8,0.1-1.5,0.3L21,11.1v6c0,3.7,0.3,4.1,1,4.3l0.3,0.1v0.2c-1.1-0.1-5.8-0.1-6.9,0v-0.2l0.5-0.1
	c0.9-0.1,1.3-0.7,1.3-4.3V7.9c-1.1-2.1-2.4-2.7-4-2.7h-1v14.7c0,3.7,0.3,4.2,1.1,4.4l0.9,0.1V24.5L14.2,24.5z M15.8,24.2h25.9v0.3
	H15.8L15.8,24.2L15.8,24.2z M36.7,21.8c-3.9,0-5.7-2.1-5.7-6.4v-0.8c0-4.1,2-6.4,6.2-6.4c3.6,0,5.2,1.5,5.2,5.7v0.8h-7v1.5
	c0,3.3,0.9,4.2,2.8,4.2c1.1,0,2.3-0.6,3.4-1.3l0.9-0.6l0,0.7l-0.7,0.7C40.3,21.1,38.6,21.8,36.7,21.8L36.7,21.8z M35.3,14.1h3.4
	v-1.3c0-3.1-0.5-3.7-1.7-3.7c-1.2,0-1.7,0.6-1.7,4.3L35.3,14.1L35.3,14.1z M51.7,24.5c-1.2-0.1-7.4-0.1-8.5,0v-0.2l0.9-0.1
	c0.8-0.1,1.1-0.6,1.1-4.3V9c0-3.7-0.3-4.2-1.1-4.4l-0.8-0.1V4.3c0.6,0,3.6,0.1,4.2,0.1c0.7,0,3.7,0,4.3,0c4.8,0,6.9,2.4,6.9,5.9V11
	c0,3.6-2.1,5.9-6.9,5.9h-1v-0.7c0.3,0,0.5,0,0.7,0c1.8,0,2.5-1.3,2.5-4.8V9.9c0-3.5-0.7-4.8-2.5-4.8c-0.2,0-1.2,0-1.9,0v14.8
	c0,3.7,0.3,4.2,1.2,4.4l1.1,0.1V24.5L51.7,24.5z M53.2,24.2h70v0.3H53.2L53.2,24.2L53.2,24.2z M63.7,21.9c-2,0-3.3-1.1-3.3-3.5v-4.9
	c0-3.3-0.2-4-0.8-4.2l-0.3-0.1V9.1c0.8-0.1,3.9-0.5,5-0.8V18c0,1.2,0.4,1.6,1.4,1.6c0.3,0,0.8-0.1,1.4-0.3l0.9-0.2v-5.5
	c0-3.2-0.4-3.8-1.3-4.1l-0.5-0.2V9.1c1-0.1,4.5-0.5,5.6-0.8v8.3c0,3.2,0.3,3.8,1.2,4.1l0.5,0.2v0.2c-1,0.1-4.3,0.5-5.3,0.8l-0.1-2.5
	H68l-0.5,0.5C66.2,21.4,65.1,21.9,63.7,21.9L63.7,21.9z M78.5,22c-2.5,0-4.2-2.2-4.2-6.5v-1c0-4.4,2-6.3,5.2-6.3c1.1,0,2,0.2,2.9,1
	l0.4,0.3h0.1V8.4c0-3-0.4-3.6-1.2-3.9l-0.5-0.1V4.2c1-0.1,4.4-0.5,5.5-0.7v13.1c0,3.3,0.4,3.9,1.3,4.2l0.5,0.2v0.2
	c-1,0.1-4.2,0.5-5.2,0.8l-0.2-2.5h-0.1L82.3,20C80.9,21.5,79.8,22,78.5,22L78.5,22z M82.1,19.3l0.7-0.2v-5.2c0-3.2-0.6-4.1-2.1-4.1
	c-1.5,0-2.2,1.2-2.2,4.4v1.7c0,2.9,0.7,3.7,2.1,3.7C81,19.6,81.5,19.5,82.1,19.3L82.1,19.3L82.1,19.3z M93.3,22
	c-2.5,0-4.1-2.2-4.1-6.5v-1c0-4.4,2-6.3,5.1-6.3c1.1,0,2,0.3,2.9,1l0.4,0.3h0.1V8.4c0-3-0.4-3.5-1.3-3.9l-0.5-0.1V4.2
	c1-0.1,4.4-0.5,5.5-0.7v13.1c0,3.3,0.3,3.9,1.2,4.2L103,21v0.2c-1,0.1-4.2,0.5-5.2,0.8l-0.2-2.5h-0.1L97,20
	C95.7,21.5,94.5,22,93.3,22L93.3,22z M96.9,19.3l0.7-0.2v-5.2c0-3.2-0.6-4.1-2.2-4.1c-1.5,0-2.1,1.2-2.1,4.4v1.7
	c0,2.9,0.7,3.7,2.1,3.7C95.7,19.6,96.2,19.5,96.9,19.3L96.9,19.3L96.9,19.3z M109.9,21.7c-1,0-5.4-0.1-6.4,0v-0.2l0.3,0
	c0.7-0.2,1-0.6,1-4.3v-3.6c0-3.2-0.4-3.8-1.2-4.1L103,9.4V9.2c1-0.1,4.5-0.5,5.6-0.7v8.7c0,3.7,0.3,4.1,1,4.3l0.2,0.1L109.9,21.7z
	 M104.3,5.3c0-1.2,0.7-1.9,2.4-1.9c1.6,0,2.4,0.7,2.4,1.9s-0.7,1.9-2.4,1.9C105,7.2,104.3,6.5,104.3,5.3z M118.4,21.7v-0.2l0.2,0
	c0.7-0.2,1-0.6,1-4.3v-5.1c0-1.2-0.4-1.6-1.4-1.6c-0.4,0-0.8,0.1-1.5,0.3l-0.8,0.3v6c0,3.7,0.3,4.1,1,4.3l0.2,0.1v0.2
	c-1.1-0.1-5.8-0.1-6.9,0v-0.2l0.5-0.1c0.9-0.1,1.3-0.7,1.3-4.3v-3.6c0-3.2-0.4-3.8-1.3-4.1l-0.5-0.1V9.2c1-0.1,4.3-0.5,5.3-0.7
	l0.2,2.5h0.1l0.5-0.5c1.4-1.5,2.5-2,3.8-2c2.1,0,3.3,1.1,3.3,3.5v5.3c0,3.6,0.4,4.1,1.2,4.3l0.5,0.1l0,0.2
	C125.2,21.7,119.5,21.6,118.4,21.7z M132.5,25.3h-2.2c-4.9,0-5.7-0.6-5.7-1.6v-0.1c0-0.9,1.2-2,3.4-2h0.1v1.6c0,0.8,0.5,1.2,2.2,1.2
	h2.1c2.3,0,3.2-0.6,3.2-1.5v-0.2c0-0.8-0.4-1.5-1.6-1.5h-6.2c-1.3,0-2-0.6-2-1.7v-0.1c0-0.9,0.6-1.6,2.2-2.5l1.4-0.7V16
	c-2.6-0.5-3.8-1.6-3.8-3.7v-0.1c0-2.6,1.9-4,6.1-4c1.1,0,2.1,0.1,3,0.4l0.1-0.2c0.8-1.6,1.8-2.3,3.7-2.3h0.4v2.5h-2.6
	c-0.2,0-1,0.1-1.2,0.1l0,0V9c1.8,0.5,2.7,1.7,2.7,3.3v0.1c0,2.6-1.9,4-6.1,4c-0.6,0-1.2,0-1.7-0.1l-0.4,0.5
	c-0.4,0.5-0.5,0.7-0.5,0.8c0,0.2,0.1,0.2,0.3,0.2h5.4c2.7,0,4.1,1.4,4.1,3.4v0.2C138.9,24,136.3,25.3,132.5,25.3L132.5,25.3z
	 M133.7,12.5v-0.3c0-2.2-0.4-2.9-1.9-2.9c-1.5,0-1.9,0.7-1.9,2.9v0.4c0,2.2,0.4,2.9,1.9,2.9S133.7,14.7,133.7,12.5L133.7,12.5z"/>
</svg>
